<svg xmlns="http://www.w3.org/2000/svg" width="184" height="53.447" viewBox="0 0 184 53.447">
  <g id="CMU_LOGO" data-name="CMU LOGO" transform="translate(-22.535 -168.876)">
    <g id="Component_1_4" data-name="Component 1 – 4" transform="translate(22.535 168.876)">
      <g id="Group_2" data-name="Group 2" transform="translate(0 23.35)">
        <path id="Path_47" data-name="Path 47" d="M70.04,263.885v4.692a1.939,1.939,0,1,0,3.846,0v-4.692h1.039v4.853a2.962,2.962,0,1,1-5.923,0v-4.853Z" transform="translate(-46.699 -241.633)" fill="#fff"/>
        <path id="Path_48" data-name="Path 48" d="M103.163,263.885h1.361l4.215,6.29h.022v-6.29H109.8v7.653h-1.319l-4.257-6.29H104.2v6.29h-1.037Z" transform="translate(-64.464 -241.633)" fill="#fff"/>
        <path id="Path_49" data-name="Path 49" d="M139.1,263.885h1.037v7.653H139.1Z" transform="translate(-83.152 -241.633)" fill="#fff"/>
        <path id="Path_50" data-name="Path 50" d="M161.185,263.885h1.2l2.247,6.226h.023l2.334-6.226h1.136l-3.016,7.653h-.972Z" transform="translate(-94.637 -241.633)" fill="#fff"/>
        <path id="Path_51" data-name="Path 51" d="M195.571,263.885h4.94v.972h-3.9v2.279h3.632v.974h-3.632v2.454h4.1v.973h-5.133Z" transform="translate(-112.519 -241.633)" fill="#fff"/>
        <path id="Path_52" data-name="Path 52" d="M227.345,263.885h2.69c1.955,0,2.454,1.179,2.454,2.141a2.051,2.051,0,0,1-1.881,2.02l2.173,3.492h-1.3l-1.945-3.371h-1.156v3.371h-1.037Zm1.037,3.373h1.361c.821,0,1.642-.2,1.642-1.233s-.821-1.233-1.642-1.233h-1.361Z" transform="translate(-129.043 -241.633)" fill="#fff"/>
        <path id="Path_53" data-name="Path 53" d="M258.662,269.727a1.911,1.911,0,0,0,1.622.822,1.416,1.416,0,0,0,1.523-1.274c0-1.764-3.77-.672-3.77-3.656a2.323,2.323,0,0,1,2.593-2.138,2.64,2.64,0,0,1,2.2.875l-.842.768a1.6,1.6,0,0,0-1.361-.669c-1.146,0-1.492.69-1.492,1.164,0,1.936,3.771.78,3.771,3.534a2.416,2.416,0,0,1-2.658,2.367,2.936,2.936,0,0,1-2.442-1.059Z" transform="translate(-144.885 -241.423)" fill="#fff"/>
        <path id="Path_54" data-name="Path 54" d="M289.649,263.885h1.038v7.653h-1.038Z" transform="translate(-161.443 -241.633)" fill="#fff"/>
        <path id="Path_55" data-name="Path 55" d="M314.584,264.857h-2.463v-.972h5.966v.972h-2.465v6.68h-1.038Z" transform="translate(-173.129 -241.633)" fill="#fff"/>
        <path id="Path_56" data-name="Path 56" d="M345.482,268.273l-2.9-4.388h1.33L346,267.246l2.149-3.361h1.265l-2.9,4.388v3.265h-1.038Z" transform="translate(-188.971 -241.633)" fill="#fff"/>
        <g id="Group_1" data-name="Group 1">
          <path id="Path_57" data-name="Path 57" d="M25.176,232.254a8.436,8.436,0,0,1-.149-12.119c1.534-1.407,3.557-2.259,6.73-2.259a21.277,21.277,0,0,1,3.089.214c.81.107,1.491.3,2.13.363.234.021.32.129.32.256,0,.17-.064.425-.106,1.172-.043.7-.023,1.874-.064,2.3-.022.32-.065.491-.256.491-.171,0-.214-.171-.214-.468a3.041,3.041,0,0,0-.83-1.96,6.349,6.349,0,0,0-4.324-1.32,5.555,5.555,0,0,0-4,1.32,7.117,7.117,0,0,0-1.959,5.516c0,5.068,3.855,7.582,6.709,7.582,1.9,0,3.046-.214,3.9-1.193a3.542,3.542,0,0,0,.725-1.405c.064-.342.107-.426.277-.426.149,0,.191.149.191.32a20.246,20.246,0,0,1-.468,2.833.75.75,0,0,1-.553.616,12.349,12.349,0,0,1-3.834.491A10.645,10.645,0,0,1,25.176,232.254Z" transform="translate(-22.535 -217.708)" fill="#fff"/>
          <path id="Path_58" data-name="Path 58" d="M56.442,230.076c0-3.089,2.172-7.092,7.859-7.092,4.728,0,7.668,2.62,7.668,6.773s-3.025,7.411-7.859,7.411C58.658,237.167,56.442,233.292,56.442,230.076Zm12.736.339c0-4-2.407-6.474-5.431-6.474-2.087,0-4.536,1.107-4.536,5.581,0,3.728,2.13,6.666,5.665,6.666C66.2,236.188,69.178,235.572,69.178,230.415Z" transform="translate(-40.168 -220.363)" fill="#fff"/>
          <path id="Path_59" data-name="Path 59" d="M95.384,231.95c0,2.322,0,3.472.4,3.812.32.277,1.044.384,2.493.384,1,0,1.725-.023,2.193-.51a2.174,2.174,0,0,0,.467-1.086c.021-.171.064-.277.214-.277.129,0,.171.192.171.4a13.839,13.839,0,0,1-.277,2.088c-.128.4-.213.491-1.194.491-1.341,0-2.427-.022-3.365-.065-.937-.022-1.725-.042-2.491-.042-.214,0-.617.021-1.066.021-.446.022-.916.044-1.3.044-.234,0-.362-.065-.362-.193,0-.085.065-.191.3-.191a2.8,2.8,0,0,0,.659-.064c.383-.085.491-.427.553-.959.086-.767.086-2.194.086-3.855v-3.2c0-2.748,0-3.258-.022-3.834-.042-.617-.212-.809-.809-.98a2.575,2.575,0,0,0-.618-.063c-.213,0-.32-.065-.32-.192s.128-.17.4-.17c.874,0,2.067.042,2.578.042.446,0,1.979-.042,2.7-.042.276,0,.4.042.4.17s-.107.192-.341.192a4.279,4.279,0,0,0-.723.063c-.512.085-.66.34-.7.98-.043.575-.043,1.086-.043,3.834Z" transform="translate(-58.192 -220.64)" fill="#fff"/>
          <path id="Path_60" data-name="Path 60" d="M112.851,230.076c0-3.089,2.172-7.092,7.859-7.092,4.729,0,7.668,2.62,7.668,6.773s-3.024,7.411-7.859,7.411C115.066,237.167,112.851,233.292,112.851,230.076Zm12.736.339c0-4-2.407-6.474-5.43-6.474-2.089,0-4.537,1.107-4.537,5.581,0,3.728,2.13,6.666,5.665,6.666C122.6,236.188,125.587,235.572,125.587,230.415Z" transform="translate(-69.502 -220.363)" fill="#fff"/>
          <path id="Path_61" data-name="Path 61" d="M149.142,228.754c0-2.748,0-3.258-.023-3.834-.043-.617-.212-.809-.809-.98a3.547,3.547,0,0,0-.745-.063c-.191,0-.318-.065-.318-.192s.149-.17.426-.17c.979,0,2.172.042,2.555.042.639,0,2.344-.042,2.917-.042a6.572,6.572,0,0,1,3.558.766,3.167,3.167,0,0,1,1.319,2.492c0,1.343-.766,2.535-2.6,4,1.662,2.044,5.08,7.028,6.209,8.155a3.511,3.511,0,0,0,2,1.193,1.746,1.746,0,0,0,.447.043.217.217,0,0,1,.234.191c0,.15-.128.192-.362.192h-1.788a4.072,4.072,0,0,1-2.044-.361c-.81-.406-3.611-4.6-4.654-6.005-.745-.979-1.534-2.193-1.769-2.471a.432.432,0,0,0-.34-.128l-1.681-.043a.135.135,0,0,0-.149.15v.255c0,1.683.021,3.088.106,3.855.064.532.148.874.724.959a7.264,7.264,0,0,0,.916.064.216.216,0,0,1,.234.191c0,.129-.149.193-.384.193-1.086,0-2.639-.065-2.917-.065-.362,0-1.556.065-2.3.065-.234,0-.363-.065-.363-.193,0-.085.064-.191.3-.191a2.8,2.8,0,0,0,.66-.064c.384-.085.491-.427.554-.959.086-.767.086-2.194.086-3.855Zm2.385,1.405c0,.193.042.258.17.32a5.125,5.125,0,0,0,1.426.169,1.885,1.885,0,0,0,1.321-.3,3.063,3.063,0,0,0,1.213-2.684c0-2.557-1.745-3.216-2.853-3.216a6.753,6.753,0,0,0-1.107.064c-.129.043-.17.106-.17.255Z" transform="translate(-87.389 -220.64)" fill="#fff"/>
          <path id="Path_62" data-name="Path 62" d="M176.568,232.19c-.106,0-.127.021-.168.126l-1,2.429a3.3,3.3,0,0,0-.277,1.106c0,.32.17.513.745.513h.278c.234,0,.277.084.277.191,0,.149-.107.193-.3.193-.617,0-1.49-.065-2.086-.065-.193,0-1.193.065-2.173.065-.234,0-.342-.044-.342-.193,0-.106.064-.191.213-.191.172,0,.384-.022.554-.022.852-.127,1.172-.683,1.555-1.6l4.9-11.395c.212-.511.362-.725.553-.725.277,0,.362.171.554.576.447,1,3.578,8.414,4.771,11.16.723,1.64,1.257,1.874,1.6,1.939a4.624,4.624,0,0,0,.7.064c.17,0,.256.064.256.191,0,.149-.107.193-.809.193-.661,0-2.024,0-3.6-.044-.34-.021-.554-.021-.554-.149,0-.106.044-.169.235-.191a.286.286,0,0,0,.17-.405l-1.449-3.643a.177.177,0,0,0-.191-.126Zm4.006-1c.085,0,.106-.043.085-.108l-1.768-4.6c-.022-.064-.043-.17-.086-.17-.063,0-.084.106-.105.17l-1.811,4.579c-.044.086,0,.129.064.129Z" transform="translate(-100.012 -220.177)" fill="#fff"/>
          <path id="Path_63" data-name="Path 63" d="M205.058,228.754c0-2.748,0-3.258-.021-3.834-.043-.617-.212-.809-.809-.98a3.541,3.541,0,0,0-.745-.063c-.191,0-.32-.065-.32-.192s.15-.17.426-.17c.98,0,2.173.042,2.705.042.575,0,1.917-.042,3.046-.042,2.342,0,5.494,0,7.538,2.065a6.34,6.34,0,0,1,1.768,4.6,7.021,7.021,0,0,1-2.045,5.048c-.851.851-2.831,2.129-6.282,2.129-.682,0-1.491-.063-2.236-.1-.745-.065-1.426-.108-1.9-.108-.213,0-.618.021-1.066.021-.447.022-.915.044-1.3.044-.235,0-.361-.065-.361-.193,0-.085.064-.191.3-.191a2.817,2.817,0,0,0,.661-.064c.383-.085.49-.427.553-.959.084-.767.084-2.194.084-3.855Zm2.514,2c0,1.917.023,3.3.044,3.663a3.3,3.3,0,0,0,.212,1.279c.235.34.981.724,2.45.724a5.916,5.916,0,0,0,4.089-1.235c1.213-1,1.6-2.619,1.6-4.495a5.888,5.888,0,0,0-1.746-4.513,7.559,7.559,0,0,0-5.239-1.726,4.026,4.026,0,0,0-1.15.127.318.318,0,0,0-.233.362c-.023.617-.023,2.108-.023,3.536Z" transform="translate(-116.467 -220.64)" fill="#fff"/>
          <path id="Path_64" data-name="Path 64" d="M238.448,230.076c0-3.089,2.172-7.092,7.859-7.092,4.729,0,7.669,2.62,7.669,6.773s-3.027,7.411-7.861,7.411C240.663,237.167,238.448,233.292,238.448,230.076Zm12.735.339c0-4-2.406-6.474-5.429-6.474-2.088,0-4.537,1.107-4.537,5.581,0,3.728,2.131,6.666,5.666,6.666C248.2,236.188,251.183,235.572,251.183,230.415Z" transform="translate(-134.816 -220.363)" fill="#fff"/>
          <path id="Path_65" data-name="Path 65" d="M288.389,218.078c.063-.363.192-.554.362-.554s.3.107.575.661l5.815,12.011,5.792-12.16c.171-.343.278-.513.469-.513s.319.214.384.661l1.939,13.163c.19,1.341.4,1.959,1.042,2.15a4.274,4.274,0,0,0,1.322.214c.19,0,.339.021.339.149,0,.17-.255.235-.554.235-.531,0-3.47-.065-4.323-.13-.489-.043-.618-.106-.618-.233,0-.107.087-.17.235-.235.127-.042.191-.32.106-.915L300,223.211h-.084l-4.643,9.67c-.488,1-.6,1.192-.789,1.192s-.4-.425-.745-1.066c-.511-.979-2.193-4.238-2.449-4.833-.19-.447-1.469-3.13-2.215-4.729h-.085l-1.107,8.477a8.519,8.519,0,0,0-.064,1c0,.405.277.6.638.681a4.1,4.1,0,0,0,.9.108c.17,0,.32.042.32.149,0,.191-.193.235-.511.235-.9,0-1.854-.065-2.237-.065-.405,0-1.428.065-2.108.065-.213,0-.383-.044-.383-.235,0-.107.127-.149.341-.149a2.745,2.745,0,0,0,.638-.064c.6-.129.767-.959.873-1.683Z" transform="translate(-158.727 -217.524)" fill="#fff"/>
          <path id="Path_66" data-name="Path 66" d="M333.1,228.591c0-2.748,0-3.258-.02-3.834-.044-.617-.214-.809-.81-.98a3.561,3.561,0,0,0-.746-.063c-.192,0-.319-.065-.319-.192s.15-.17.426-.17c.98,0,2.172.042,2.706.042.595,0,4.748.021,5.111,0,.341-.022.638-.085.788-.106a2.15,2.15,0,0,1,.3-.087c.106,0,.126.087.126.171a8.188,8.188,0,0,0-.149,1.171c-.021.192-.063.981-.1,1.193-.022.086-.066.3-.214.3-.129,0-.149-.084-.149-.234a1.729,1.729,0,0,0-.128-.66c-.149-.319-.3-.575-1.236-.659-.32-.043-2.554-.085-2.94-.085-.083,0-.126.063-.126.169v4.472c0,.108.02.192.126.192.426,0,2.855,0,3.281-.042.447-.042.725-.086.9-.276.148-.129.214-.236.3-.236s.149.086.149.193-.043.4-.149,1.32c-.043.361-.084,1.086-.084,1.213,0,.15-.022.4-.192.4-.129,0-.17-.062-.17-.148-.022-.192-.022-.426-.063-.66-.108-.362-.342-.638-1.044-.7-.342-.041-2.472-.084-2.94-.084-.085,0-.106.084-.106.192v1.448c0,.618-.022,2.152,0,2.684.043,1.236.615,1.513,2.533,1.513a5.066,5.066,0,0,0,1.768-.236c.469-.213.681-.6.809-1.341.043-.193.085-.276.214-.276.148,0,.17.233.17.425a12.519,12.519,0,0,1-.255,2c-.129.469-.3.469-1,.469-1.406,0-2.536-.022-3.45-.065-.916-.022-1.619-.042-2.174-.042-.213,0-.616.021-1.065.021-.447.022-.916.044-1.3.044-.235,0-.362-.065-.362-.193,0-.085.064-.191.3-.191a2.811,2.811,0,0,0,.661-.064c.383-.085.49-.427.553-.959.084-.767.084-2.194.084-3.855Z" transform="translate(-183.052 -220.477)" fill="#fff"/>
          <path id="Path_67" data-name="Path 67" d="M356.909,236.7c-.3-.128-.362-.213-.362-.618,0-.98.084-2.108.106-2.407,0-.277.085-.469.235-.469.17,0,.19.171.19.3a3.33,3.33,0,0,0,.173.937,2.9,2.9,0,0,0,2.982,1.789,2.35,2.35,0,0,0,2.6-2.3c0-.788-.191-1.576-1.854-2.554l-1.085-.64c-2.216-1.3-2.94-2.513-2.94-4.11,0-2.215,2.131-3.642,4.729-3.642a11.118,11.118,0,0,1,2.662.3c.171.041.257.107.257.235,0,.234-.064.746-.064,2.171,0,.383-.086.575-.234.575-.128,0-.193-.105-.193-.319a2.038,2.038,0,0,0-.49-1.192,2.514,2.514,0,0,0-2.088-.851c-1.341,0-2.555.7-2.555,1.937,0,.811.3,1.449,1.981,2.385l.767.426c2.47,1.363,3.236,2.748,3.236,4.387a3.869,3.869,0,0,1-1.874,3.387,5.458,5.458,0,0,1-3.131.745A7.957,7.957,0,0,1,356.909,236.7Z" transform="translate(-196.232 -220.363)" fill="#fff"/>
          <path id="Path_68" data-name="Path 68" d="M378.326,232.19c-.106,0-.127.021-.169.126l-1,2.429a3.261,3.261,0,0,0-.275,1.106c0,.32.169.513.744.513h.276c.235,0,.277.084.277.191,0,.149-.1.193-.3.193-.616,0-1.49-.065-2.087-.065-.192,0-1.193.065-2.171.065-.235,0-.341-.044-.341-.193,0-.106.063-.191.213-.191.169,0,.383-.022.553-.022.852-.127,1.171-.683,1.554-1.6l4.9-11.395c.213-.511.362-.725.553-.725.277,0,.362.171.553.576.448,1,3.579,8.414,4.772,11.16.723,1.64,1.255,1.874,1.6,1.939a4.624,4.624,0,0,0,.7.064c.169,0,.255.064.255.191,0,.149-.107.193-.809.193-.66,0-2.024,0-3.6-.044-.34-.021-.554-.021-.554-.149,0-.106.044-.169.235-.191a.285.285,0,0,0,.17-.405l-1.448-3.643a.178.178,0,0,0-.192-.126Zm4.005-1c.084,0,.105-.043.084-.108l-1.768-4.6c-.021-.064-.043-.17-.085-.17-.063,0-.086.106-.107.17l-1.811,4.579c-.042.086,0,.129.064.129Z" transform="translate(-204.933 -220.177)" fill="#fff"/>
        </g>
      </g>
      <g id="Group_4" data-name="Group 4" transform="translate(61.588)">
        <path id="Path_69" data-name="Path 69" d="M183.028,180.036c1.794-1.326,2.02-1.554,3.69-2.712-1.49-.155-2.7-.156-4.181-.347a5.955,5.955,0,0,0-4.138,1.464c-.7.519-1.437.97-2.145,1.476q-2.618,1.873-5.293,3.674c-.433.29-.856.6-1.283.891,1.708-.64,1.39.8,5.7-2.428A9.238,9.238,0,0,1,183.028,180.036Z" transform="translate(-160.642 -173.074)" fill="#fff"/>
        <g id="Group_3" data-name="Group 3" transform="translate(0 11.722)">
          <path id="Path_70" data-name="Path 70" d="M150.851,195.647s13.112-5.286,26.224,0a28.716,28.716,0,0,0,26.225,0c-2.3.928-12.459,11.592-28.556,2.164C166.3,192.867,155.335,194.871,150.851,195.647Z" transform="translate(-150.851 -193.298)" fill="#fff"/>
          <path id="Path_71" data-name="Path 71" d="M155.809,198.847s12.425-4.787,19.6,2.44C175.414,201.288,168.119,196.925,155.809,198.847Z" transform="translate(-153.429 -195.375)" fill="#fff"/>
          <path id="Path_72" data-name="Path 72" d="M218.215,197.481s8.422,6.373,16.845.159A21.521,21.521,0,0,1,218.215,197.481Z" transform="translate(-185.882 -195.473)" fill="#fff"/>
        </g>
        <path id="Path_73" data-name="Path 73" d="M231.776,182.835a8.11,8.11,0,0,0-1.577-2.008c-.737-.708-9.879-10.491-10.263-10.875a4.2,4.2,0,0,0-2.689-1.077H203.413a5.386,5.386,0,0,0-2.69,1.077s-9.89,6.947-14.391,10.466c.841.085,1.047.047,1.305.081,2.69-1.857,8.989-5.683,9.908-6.294,2.563-1.7,7-3.033,9.088-.919,1.313,1.33,1.941,2.765,3.874,3.187,1.184.258,4.52-.712,5.7-.87a7.879,7.879,0,0,1,4.473.671c3.551,2,10.129,6.31,10.725,6.672C231.724,183.141,231.961,183.209,231.776,182.835Z" transform="translate(-169.302 -168.876)" fill="#fff"/>
      </g>
    </g>
  </g>
</svg>
