<?xml version="1.0" encoding="utf-8"?>
<!-- Generator: Adobe Illustrator 25.2.0, SVG Export Plug-In . SVG Version: 6.00 Build 0)  -->
<svg version="1.1" id="Layer_1" xmlns="http://www.w3.org/2000/svg" xmlns:xlink="http://www.w3.org/1999/xlink" x="0px" y="0px"
	 viewBox="0 0 319.74 54.58" style="enable-background:new 0 0 319.74 54.58;" xml:space="preserve">
<style type="text/css">
	.st0{fill:#AF4425;}
	.st1{fill:#DA4F36;}
</style>
<g>
	<g>
		<path class="st0" d="M74.8,38.58h-7.61V8.22h7.83c9.12,0,17.93,2.41,17.93,14.49C92.94,35.44,84.3,38.58,74.8,38.58z M75.62,12.22
			h-3.87v22.4h3.96c6.67,0,12.56-2.45,12.56-11.61C88.26,13.47,80.73,12.22,75.62,12.22z"/>
		<path class="st0" d="M100.68,28.04c0,0.17,0.04,0.3,0.04,0.47c0.17,4.17,2.88,7.18,7.48,7.18c2.06,0,4.21-0.9,5.5-1.89l1.33,3.27
			c-1.72,1.2-4.56,2.24-7.61,2.24c-7.09,0-10.84-5.16-10.84-12c0-5.89,3.01-12.25,9.98-12.25c5.63,0,8.86,3.91,8.9,9.72
			C111,26.84,106.14,28,100.68,28.04z M106.36,18.28c-3.83,0-5.55,3.1-5.72,6.62c4.17-0.09,7.65-0.65,10.88-2.19
			C111.3,20.09,109.33,18.28,106.36,18.28z"/>
		<path class="st0" d="M138.39,15.83c-0.52-0.26-1.03-0.34-1.59-0.34c-1.12,0-2.11,0.82-2.11,2.54c1.12,1.29,1.72,2.97,1.72,4.9
			c0,4.17-2.71,7.7-8.08,7.7c-1.29,0-2.41-0.21-3.4-0.6c-0.86,0.86-1.55,1.98-1.85,2.97c0.43,0.95,1.42,1.38,2.97,1.38h6.45
			c3.31,0,6.24,1.68,6.24,5.72c0,5.42-5.46,7.74-10.36,7.74c-4.64,0-8.94-2.02-8.94-5.76c0-1.12,0.34-1.98,0.77-2.54l3.27,0.34
			c-0.17,0.39-0.3,0.9-0.3,1.38c0,2.32,2.32,3.61,5.33,3.61c3.31,0,6.19-1.55,6.19-4.08c0-2.19-1.63-2.84-3.23-2.84h-6.41
			c-3.31,0-5.25-1.33-5.72-3.27c0.69-2.36,1.89-4.39,3.4-5.8c-1.55-1.38-2.45-3.35-2.45-5.93c0-4.34,2.84-7.83,8.08-7.83
			c1.5,0,2.84,0.34,4.08,0.99c0.17-2.41,1.85-4.13,4.34-4.13c0.69,0,1.46,0.13,2.15,0.39L138.39,15.83z M128.38,17.94
			c-3.01,0-4.17,2.67-4.17,4.94c0,2.41,1.16,4.94,4.13,4.94c3.53,0,4.17-3.31,4.17-4.94C132.5,20.56,131.34,17.94,128.38,17.94z"/>
		<path class="st0" d="M154.48,20c-0.43-0.21-1.12-0.52-1.85-0.52c-1.76,0-2.71,0.77-3.61,1.85c-0.77,0.82-0.82,1.63-0.82,2.75
			v14.49h-4.13V20.22c0-0.95-0.26-1.55-1.03-1.55c-0.3,0-0.73,0.09-0.99,0.17l-0.3-2.97c0.69-0.21,1.81-0.47,2.84-0.47
			c2.24,0,3.14,1.46,3.05,3.96c1.33-2.11,3.05-4.17,5.89-4.17c0.77,0,1.59,0.21,2.06,0.39L154.48,20z"/>
		<path class="st0" d="M160.8,28.04c0,0.17,0.04,0.3,0.04,0.47c0.17,4.17,2.88,7.18,7.48,7.18c2.06,0,4.21-0.9,5.5-1.89l1.33,3.27
			c-1.72,1.2-4.56,2.24-7.61,2.24c-7.09,0-10.84-5.16-10.84-12c0-5.89,3.01-12.25,9.98-12.25c5.63,0,8.86,3.91,8.9,9.72
			C171.12,26.84,166.26,28,160.8,28.04z M166.47,18.28c-3.83,0-5.55,3.1-5.72,6.62c4.17-0.09,7.65-0.65,10.88-2.19
			C171.42,20.09,169.44,18.28,166.47,18.28z"/>
		<path class="st0" d="M183.46,28.04c0,0.17,0.04,0.3,0.04,0.47c0.17,4.17,2.88,7.18,7.48,7.18c2.06,0,4.21-0.9,5.5-1.89l1.33,3.27
			c-1.72,1.2-4.56,2.24-7.61,2.24c-7.09,0-10.84-5.16-10.84-12c0-5.89,3.01-12.25,9.98-12.25c5.63,0,8.86,3.91,8.9,9.72
			C193.78,26.84,188.92,28,183.46,28.04z M189.13,18.28c-3.83,0-5.55,3.1-5.72,6.62c4.17-0.09,7.65-0.65,10.88-2.19
			C194.08,20.09,192.1,18.28,189.13,18.28z"/>
		<path class="st1" d="M228.95,38.71h-5.29l-4.13-11.39c-0.69-2.06-1.42-4.73-1.81-6.23h-0.09c-0.34,1.42-1.03,3.96-1.72,6.23
			l-3.87,11.39h-5.33l-6.06-30.49h4.64l3.44,18.06c0.52,2.71,0.95,5.76,1.08,6.92h0.09c0.43-1.68,1.25-4.51,1.93-6.75l3.87-11.44
			h4.56l3.96,11.14c0.77,2.41,1.68,5.42,2.06,7.09h0.09c0.13-1.46,0.69-4.94,1.2-7.83l3.18-17.2h4.3L228.95,38.71z"/>
		<path class="st1" d="M247.53,39.39c-7.22,0-10.32-5.98-10.32-12.3c0-6.28,3.4-12.13,10.49-12.13c7.22,0,10.32,5.89,10.32,12.17
			C258.02,33.37,254.67,39.39,247.53,39.39z M247.7,18.5c-4.69,0-6.19,4.77-6.19,8.6c0,3.78,1.25,8.77,6.02,8.77
			c4.77,0,6.19-4.94,6.19-8.69C253.72,23.4,252.47,18.5,247.7,18.5z"/>
		<path class="st1" d="M274.49,20c-0.43-0.21-1.12-0.52-1.85-0.52c-1.76,0-2.71,0.77-3.61,1.85c-0.77,0.82-0.82,1.63-0.82,2.75
			v14.49h-4.13V20.22c0-0.95-0.26-1.55-1.03-1.55c-0.3,0-0.73,0.09-0.99,0.17l-0.3-2.97c0.69-0.21,1.81-0.47,2.84-0.47
			c2.24,0,3.14,1.46,3.05,3.96c1.33-2.11,3.05-4.17,5.89-4.17c0.77,0,1.59,0.21,2.06,0.39L274.49,20z"/>
		<path class="st1" d="M290.14,26.15c1.03,1.81,2.88,4.69,3.96,6.28c1.55,2.32,2.11,3.27,3.22,3.27c0.3,0,0.65-0.09,0.86-0.17
			l0.26,3.01c-0.73,0.26-1.72,0.34-2.49,0.34c-2.24,0-3.44-0.82-4.94-3.57c-1.08-1.76-2.79-4.47-4.08-6.58
			c-0.95,0.65-1.94,1.16-3.1,1.68v8.17h-4.13V6.76h4.13v19.52c4.47-2.41,7.14-5.8,8.64-10.53h4.47
			C295.56,20.17,293.24,23.57,290.14,26.15z"/>
		<path class="st1" d="M307.04,39.31c-2.58,0-4.99-0.9-6.36-2.06l1.5-3.23c1.38,1.2,3.31,1.89,5.2,1.89s4.3-0.82,4.3-3.23
			c0-1.93-1.42-2.67-3.66-3.57l-2.11-0.82c-2.79-1.16-4.73-2.79-4.73-6.11c0-4.04,3.4-7.14,8-7.14c2.62,0,4.64,0.9,5.85,1.89
			l-1.51,3.22c-1.25-1.07-2.92-1.68-4.51-1.68c-2.79,0-3.96,1.55-3.96,3.1c0,1.59,1.25,2.45,3.05,3.14l2.11,0.82
			c3.18,1.2,5.38,2.88,5.38,6.62C315.6,36.47,311.98,39.31,307.04,39.31z"/>
	</g>
	<g>
		<g>
			<path class="st0" d="M59.08,18.36c-0.16,0.37-0.48,0.5-0.84,0.61c-5.43,1.7-10.85,3.4-16.28,5.11c-3.32,1.04-6.63,2.09-9.96,3.12
				c-0.25,0.08-0.57,0.06-0.82-0.02c-5.01-1.57-10.02-3.15-15.02-4.74c-0.26-0.08-0.43-0.03-0.61,0.15
				c-0.79,0.81-1.22,1.8-1.56,2.86c-0.36,1.14-0.55,2.32-0.64,3.51c-0.02,0.21,0.04,0.33,0.22,0.45c1.66,1.15,1.71,3.6,0.11,4.81
				c-0.17,0.13-0.23,0.25-0.2,0.46c0.31,2.24,0.61,4.48,0.91,6.73c0.15,1.09,0.29,2.19,0.43,3.28c0.05,0.39-0.14,0.66-0.62,0.89
				c-1.62,0-3.25,0-4.87,0c-0.57-0.27-0.67-0.48-0.58-1.15c0.43-3.24,0.87-6.48,1.31-9.72c0.03-0.22-0.02-0.35-0.2-0.5
				c-1.42-1.11-1.59-3.31-0.25-4.47c0.55-0.48,0.77-0.96,0.75-1.63c0-0.03,0-0.07,0.01-0.1c0.2-1.93,0.63-3.79,1.55-5.52
				c0.2-0.38,0.44-0.75,0.67-1.14c-0.1-0.04-0.18-0.07-0.26-0.1c-2.51-0.78-5.01-1.56-7.52-2.35c-0.46-0.14-0.66-0.39-0.66-0.79
				c0-0.4,0.19-0.62,0.67-0.77c4.41-1.39,8.83-2.78,13.24-4.16c4.38-1.38,8.77-2.76,13.15-4.12c0.24-0.08,0.54-0.06,0.8,0
				c0.58,0.14,1.15,0.34,1.73,0.52c5.34,1.68,10.69,3.36,16.03,5.04c2.86,0.9,5.72,1.8,8.58,2.69c0.33,0.1,0.6,0.26,0.74,0.59
				C59.08,18.05,59.08,18.2,59.08,18.36z"/>
			<path class="st0" d="M46.44,25.85c0.04,0.71,0.09,1.38,0.12,2.04c0.1,1.83,0.19,3.65,0.3,5.48c0.05,0.8-0.26,1.45-0.78,2.03
				c-0.9,1-2.05,1.62-3.27,2.14c-2,0.84-4.1,1.3-6.24,1.6c-2.58,0.36-5.17,0.42-7.77,0.22c-3.21-0.25-6.36-0.81-9.29-2.24
				c-0.92-0.45-1.77-1-2.44-1.8c-0.54-0.64-0.77-1.36-0.71-2.22c0.13-1.78,0.2-3.56,0.3-5.34c0.03-0.63,0.08-1.26,0.12-1.92
				c1.27,0.4,2.5,0.79,3.73,1.17c3.33,1.05,6.65,2.1,9.99,3.14c0.83,0.26,1.66,0.19,2.49-0.08c4.4-1.39,8.81-2.77,13.21-4.16
				C46.25,25.9,46.33,25.88,46.44,25.85z"/>
		</g>
	</g>
</g>
</svg>
