<?xml version="1.0" encoding="utf-8"?>
<!-- Generator: Adobe Illustrator 25.2.0, SVG Export Plug-In . SVG Version: 6.00 Build 0)  -->
<svg version="1.1" id="Layer_1" xmlns="http://www.w3.org/2000/svg" xmlns:xlink="http://www.w3.org/1999/xlink" x="0px" y="0px"
	 viewBox="0 0 1366 768" style="enable-background:new 0 0 1366 768;" xml:space="preserve">
<style type="text/css">
	.st0{fill:#F2F2F2;}
</style>
<g>
	<path class="st0" d="M567.18,307.94h11.53c2.94,15.84,5.89,31.76,8.93,48.15h-9.52c-0.57-3.18-1.14-6.4-1.75-9.86h-6.87
		c-0.55,3.17-1.1,6.39-1.7,9.91h-17.85v-24.8c-0.61-0.06-0.4-0.04-1.01-0.11c-1.75,8.3-3.49,16.61-5.24,24.9h-5.37
		c-1.66-8.21-3.26-16.14-4.86-24.08c-0.46,0.05-0.3,0.03-0.75,0.07v24.01h-8.56v-48.06h11.83c1.54,6.98,3.11,14.12,4.69,21.26
		c0.46,0,0.38,0,0.84,0c1.49-6.97,2.98-13.94,4.54-21.23h12.13v48.15C561.15,340.29,564.11,324.4,567.18,307.94z M573.24,322.3
		c-0.35,0.01-0.69,0.03-1.04,0.04c-0.77,4.91-1.53,9.82-2.35,15.05c2.06,0,3.76,0,5.79,0C574.81,332.11,574.03,327.2,573.24,322.3z"
		/>
	<path class="st0" d="M723.98,334.79c0,3.64-0.24,6.61,0.06,9.52c0.37,3.51,2.53,5.45,5.38,5.44c2.84-0.01,4.7-1.87,5.39-5.48
		c0.18-0.95,0.23-1.93,0.37-3.13c3.12,0,6.03,0,8.94,0c1.03,8.76-3.73,15.24-11.95,16.39c-9.26,1.3-16.38-2.94-17.25-11.53
		c-0.84-8.36-0.9-16.93-0.09-25.3c0.8-8.25,5.78-11.87,13.85-12.02c8.96-0.16,13.76,3.18,15.35,11.58
		c0.85,4.49,0.61,9.19,0.91,14.51C737.71,334.79,731.02,334.79,723.98,334.79z M734.8,326.59c0.11-3.57,0.81-7.16-2.59-9.15
		c-1.42-0.83-4.18-0.84-5.56,0.01c-3.21,2-3,5.51-2.67,9.14C727.67,326.59,731.06,326.59,734.8,326.59z"/>
	<path class="st0" d="M710.44,356.41c-2.6,0-5.33,0-8.49,0c-0.1-1.72-0.27-3.32-0.28-4.92c-0.02-9.49,0.03-18.97-0.05-28.46
		c-0.02-1.91-0.49-3.82-0.72-5.51c-4-1.89-6.54-0.15-9.5,2.2c0,12.03,0,24.28,0,36.75c-3.29,0-6.06,0-9.22,0
		c-0.42-4.78-1.07-9.42,0.9-14.09c2.5-5.92,2.76-12.13,0.27-18c-2.01-4.73-1.42-9.36-1.39-14.5c2.82,0,5.38,0,8.32,0
		c0.3,0.96,0.65,2.12,1.1,3.58c1.32-0.91,2.42-1.61,3.46-2.39c2.67-2.01,5.7-2.53,8.96-2.37c3.45,0.18,5.48,2.14,6.66,5.15
		c0.36,0.91,0.49,1.95,0.49,2.94c0.03,12.81,0.02,25.61,0,38.42C710.98,355.52,710.72,355.81,710.44,356.41z"/>
	<path class="st0" d="M611.88,308.11c-3.41,16.23-6.71,31.96-10.08,48c-3.25,0-6.29,0-9.65,0c-3.35-16.01-6.67-31.88-10.06-48.08
		c3.38,0,6.31,0,9.7,0c1.6,8.52,3.21,17.05,4.82,25.59c0.27-0.02,0.54-0.04,0.81-0.06c1.53-8.38,3.06-16.75,4.65-25.45
		C605.21,308.11,608.27,308.11,611.88,308.11z"/>
	<path class="st0" d="M618.46,347.76c5.73,0,10.7,0,15.29,0c3.49,1.98,3.15,4.68,2.64,7.77c-9.44,0-18.68,0-28.2,0
		c-0.95-4.53,0.05-8.59,2.22-12.41c4.2-7.37,8.49-14.68,12.72-22.04c0.72-1.25,1.31-2.57,2.28-4.49c-3.62-0.19-6.65-0.36-10.21-0.55
		c0.55-2.62,1.01-4.83,1.53-7.31c6.64,0,13.03,0,19.69,0c0,2.39,0,4.5,0,6.62C630.59,325.88,624.74,336.44,618.46,347.76z"/>
	<path class="st0" d="M646.61,340.78c4.02,2.95,7.05,5.49,10.39,7.52c3.31,2.01,6.94,3.5,10.87,5.43
		c-6.22,3.33-12.19,3.48-18.89,1.14C648.25,350.58,647.5,346.13,646.61,340.78z"/>
	<path class="st0" d="M665.87,310.88c0.68,4.09,1.4,8.46,2.13,12.87c-6.94-4.15-13.52-8.09-19.94-11.93
		C651.51,308.56,658.15,307.97,665.87,310.88z"/>
	<path class="st0" d="M670.84,313.03c5.08,3.62,8.34,8.67,9.47,15.35c-3.05,3.49-6.65,6.16-10.46,8.34
		C670.19,328.63,670.51,320.91,670.84,313.03z"/>
	<path class="st0" d="M633.94,336.24c3.42-2.77,6.84-5.55,10.4-8.43c0,8.28,0,16.02,0,23.83
		C638.76,348.45,636.03,344.51,633.94,336.24z"/>
	<path class="st0" d="M680.96,334.65c-0.25,6.47-3.29,11.62-8.48,16.27c-4.19-1.68-8.37-3.35-12.42-4.97
		C667.26,342.06,674.02,338.4,680.96,334.65z"/>
	<path class="st0" d="M655.05,319.09c-7.52,4.21-14.21,7.96-20.92,11.72c0.62-6.21,3-11.76,8.68-16.4
		C646.71,315.91,650.77,317.46,655.05,319.09z"/>
</g>
</svg>
