<?xml version="1.0" encoding="utf-8"?>
<!-- Generator: Adobe Illustrator 25.2.1, SVG Export Plug-In . SVG Version: 6.00 Build 0)  -->
<svg version="1.1" id="Layer_1" xmlns="http://www.w3.org/2000/svg" xmlns:xlink="http://www.w3.org/1999/xlink" x="0px" y="0px"
	 viewBox="0 0 240 112" style="enable-background:new 0 0 240 112;" xml:space="preserve">
<style type="text/css">
	.st0{fill:none;}
	.st1{fill:#860038;}
</style>
<rect x="-13" y="109.3" class="st0" width="240" height="112"/>
<g>
	<path class="st1" d="M140.9,62.1c-0.4,2.3-2.4,4-4.7,3.8c-3,0-5.2-2.3-5.2-6c0-3.7,2.3-6,5.3-6c2.3-0.1,4.2,1.6,4.5,3.8l3.7-0.8
		c-0.8-4-3.9-6.3-8.1-6.3c-4.9-0.2-8.9,3.6-9.1,8.4c0,0.3,0,0.5,0,0.8c0,5.5,3.7,9.2,9,9.2c4.3,0,7.6-2.3,8.3-6.3L140.9,62.1z
		 M117.1,54.2l-2.4-0.6c-4-0.9-5.2-1.9-5.2-3.9c0-2.4,1.9-4,5.1-4c2.9,0,4.9,1.4,5.3,4.5l3.9-0.8c-0.7-4.5-4.1-7.2-9.1-7.2
		c-5.3,0-9.1,3.2-9.1,7.7c0,3.5,2.3,5.9,7.1,6.9l2.4,0.5c4,0.9,5.2,2.1,5.2,4c0,2.5-2.1,4.3-5.3,4.3c-3.2,0-5.5-1.7-5.8-5.2
		l-3.9,0.8c0.5,4.9,4.3,7.9,9.5,7.9c5.6,0,9.4-3.3,9.4-8.1C124.2,57.5,122.1,55.2,117.1,54.2 M199.4,65.8v3.1
		c-0.8,0.2-1.6,0.3-2.4,0.3c-4.2,0-6.2-1.9-6.2-6.6v-8.2h-3.1v-3.2h3.1v-4.4l3.7-0.8v5.1h4.8v3.2h-4.8v8.1c0,2.7,0.9,3.6,3.3,3.6
		C198.3,65.9,198.8,65.9,199.4,65.8 M184.6,51.1v17.6h-3.3l-0.2-2.3H181c-1.3,1.8-3.4,2.8-5.6,2.7c-3.6,0-6.2-2.5-6.2-6.9V51.1h3.7
		v9.7c0,3.6,1.3,4.9,3.6,4.9c2.6,0,4.4-1.7,4.4-5.2v-9.5L184.6,51.1z M161.5,59.9c0-3.6-2.2-6-5.3-6c-3.1,0-5.3,2.4-5.3,6
		c0,3.6,2.2,6,5.3,6C159.3,65.9,161.5,63.5,161.5,59.9 M147.1,59.9c-0.1-5,4-9.1,9-9.2s9.1,4,9.2,9c0,0.1,0,0.1,0,0.2
		c0.1,5-3.9,9.2-8.9,9.2s-9.2-3.9-9.2-8.9C147.1,60.1,147.1,60,147.1,59.9"/>
	<path class="st1" d="M59.8,33.6c-7.1,7.1-9.5,17.5-6.3,27l16.1-3.3L59.8,33.6z M71,60.4l7.4,18c-7,0-13.6-2.8-18.6-7.7
		c-0.5-0.5-1.1-1.1-1.6-1.7L71,60.4z"/>
	<path class="st1" d="M78.4,55.4l-8.8,1.8l1.3,3.2L78.4,55.4z M53.5,60.6c1,3.1,2.7,6,4.7,8.5l-10.9,7.4c-3.1-3.9-5.4-8.4-6.7-13.2
		L53.5,60.6z"/>
	<path class="st1" d="M71,60.4L58.3,69c-2.1-2.5-3.7-5.4-4.7-8.5l16.1-3.3L71,60.4z"/>
</g>
</svg>
